<?xml version="1.0" encoding="UTF-8"?>
<svg version="1.1" xmlns="http://www.w3.org/2000/svg" width="712" height="278">
<path d="M0 0 C-0.60276549 3.5460913 -0.90943983 3.92858068 -3.95703125 6.33203125 C-5.23414438 7.17122419 -6.51990611 7.99735354 -7.8125 8.8125 C-8.48885498 9.25335938 -9.16520996 9.69421875 -9.86206055 10.1484375 C-13.9261848 12.7721187 -18.06960657 15.17414305 -22.3125 17.5 C-33.32598297 23.84825426 -40.22564082 33.56028706 -47 44 C-46.30777344 43.81824219 -45.61554688 43.63648438 -44.90234375 43.44921875 C-39.0816893 41.95379369 -33.29267711 40.67850305 -27.375 39.625 C-21.70101538 38.53093938 -17.06421895 36.94333722 -12.05078125 34.0859375 C-10.02925908 33.01549338 -8.23294738 32.45364619 -6 32 C-5.74712807 38.06892629 -6.30167391 43.16200408 -8 49 C-7.2265625 49.17015625 -6.453125 49.3403125 -5.65625 49.515625 C5.46981155 52.10436209 13.63556063 56.03728328 22 64 C22.88546813 65.46064401 23.74213383 66.93932309 24.5625 68.4375 C26.09287155 70.74434325 27.18561609 71.81145627 29.90869141 72.44189453 C34.93311107 73.07282734 39.94348454 73.09009382 45 73 C47.9329545 78.67178365 50.43624131 84.37642213 52.73046875 90.33203125 C53.25270523 91.67314468 53.25270523 91.67314468 53.78549194 93.04135132 C54.92285327 95.96377426 56.05511149 98.88814705 57.1875 101.8125 C58.79255808 105.94077137 60.40028062 110.0680039 62.0078125 114.1953125 C62.62206841 115.77402382 62.62206841 115.77402382 63.24873352 117.3846283 C68.0111692 129.61632999 72.84666076 141.81903153 77.68612671 154.02041626 C78.39925108 155.81847646 79.11209435 157.61664818 79.82461548 159.41494751 C80.46715946 161.03656094 81.1104052 162.65789654 81.75448608 164.27890015 C82.89994455 167.1699745 84.01638846 170.04916539 85 173 C89.87846079 161.38988677 94.61830428 149.72285263 99.375 138.0625 C99.81220367 136.99127899 100.24940735 135.92005798 100.69985962 134.81637573 C107.35758975 118.50365423 113.99315807 102.18207387 120.59326172 85.84594727 C120.88718307 85.11927856 121.18110443 84.39260986 121.4839325 83.6439209 C122.02679454 82.30175465 122.56900578 80.95932491 123.11042786 79.61657715 C124.01693538 77.37632302 124.91872223 75.16255554 126 73 C137.55 73 149.1 73 161 73 C161 119.86 161 166.72 161 215 C152.09 215 143.18 215 134 215 C133.67 183.32 133.34 151.64 133 119 C113.93955522 166.97611983 113.93955522 166.97611983 95 215 C88.4 215 81.8 215 75 215 C70.67291303 205.81344738 66.71300486 196.54736622 62.97265625 187.109375 C62.41540883 185.71123151 61.85781948 184.31322427 61.2999115 182.91534424 C59.84471884 179.2670084 58.39352749 175.61709554 56.94342041 171.96673584 C54.62883889 166.14235516 52.30777298 160.32055483 49.98724174 154.49854279 C49.19144576 152.50043752 48.39720253 150.50172159 47.60328674 148.50286865 C43.80938303 138.96890405 39.90771005 129.49015298 36 120 C35.67 151.35 35.34 182.7 35 215 C26.42 215 17.84 215 9 215 C9 168.14 9 121.28 9 73 C11.475 72.505 11.475 72.505 14 72 C5.97533328 66.03294013 -2.13055034 64.53497951 -12 64 C-12.11601562 64.72703125 -12.23203125 65.4540625 -12.3515625 66.203125 C-14.62999288 76.0305717 -21.97344282 82.50204031 -30 88 C-32.34280538 89.26834636 -34.46630395 90.15543465 -37 91 C-36.23816406 91.4125 -35.47632813 91.825 -34.69140625 92.25 C-20.97345468 99.9224623 -10.34607909 109.7816253 -5 124.9375 C-1.26331467 138.60524163 -2.17164839 152.97798252 -8.625 165.6875 C-16.89364603 179.71357364 -29.10026027 189.65755732 -44.89453125 193.75 C-47.59613355 194.29409892 -50.26168532 194.69527901 -53 195 C-53.70125 195.08378906 -54.4025 195.16757813 -55.125 195.25390625 C-69.31814095 196.08721566 -83.63592252 189.73724984 -94.25 180.8125 C-103.88555768 171.69695655 -110.43869467 159.34895441 -111.23828125 146.03125 C-111.65471779 129.12168536 -107.59208079 115.98523189 -95.9375 103.3125 C-84.65181407 92.62180771 -71.24735446 88.27061287 -56 87 C-57.54385885 84.07479375 -58.82854138 82.13628762 -61.4375 80.0625 C-64 78 -64 78 -65.8125 75.0625 C-68.65655853 71.08081806 -71.68485226 69.19256155 -76 67 C-76.93392578 66.51660156 -76.93392578 66.51660156 -77.88671875 66.0234375 C-88.36640625 61.61743922 -102.61068994 62.85164422 -113.0390625 66.62109375 C-122.6458289 71.09495726 -129.81520307 77.72559052 -135 87 C-135.90945849 89.83133304 -136.25317585 91.28444509 -135.2578125 94.09765625 C-134.88398438 94.74605469 -134.51015625 95.39445312 -134.125 96.0625 C-129.86071168 103.59210001 -130.15022434 112.54176786 -131 121 C-131.84832635 123.99409301 -132.84666359 126.62574013 -134.22265625 129.41015625 C-135.93728157 135.12270193 -134.2069307 140.35383477 -131.52612305 145.47729492 C-131.01819214 146.38572144 -131.01819214 146.38572144 -130.5 147.3125 C-130.14397705 147.96130127 -129.7879541 148.61010254 -129.42114258 149.27856445 C-125.93792975 155.43206334 -121.7309005 160.75022654 -117 166 C-116.55720703 166.49628906 -116.11441406 166.99257812 -115.65820312 167.50390625 C-99.05829449 186.08276612 -78.56385317 206.71807342 -56 218 C-56 218.66 -56 219.32 -56 220 C-62.18005002 221.36740291 -62.18005002 221.36740291 -65.74609375 219.76953125 C-66.63425781 219.12371094 -67.52242187 218.47789062 -68.4375 217.8125 C-69.46617187 217.07515625 -70.49484375 216.3378125 -71.5546875 215.578125 C-72.70387852 214.71975789 -73.85227196 213.86032228 -75 213 C-76.31462691 212.03580728 -77.62975095 211.07229208 -78.9453125 210.109375 C-91.22075108 201.06339082 -102.94506669 191.51234043 -114 181 C-114.62068359 180.41331543 -115.24136719 179.82663086 -115.88085938 179.22216797 C-125.5240995 170.04776257 -133.95368261 160.46083167 -141.7199707 149.6472168 C-143.03481046 147.95520386 -144.45489445 146.48200553 -146 145 C-146.93972656 145.54140625 -146.93972656 145.54140625 -147.8984375 146.09375 C-148.71570313 146.5578125 -149.53296875 147.021875 -150.375 147.5 C-151.18710938 147.9640625 -151.99921875 148.428125 -152.8359375 148.90625 C-155 150 -155 150 -157 150 C-156.5875 150.46148437 -156.175 150.92296875 -155.75 151.3984375 C-149.43920348 158.52625679 -143.33215806 165.63709129 -138.37109375 173.7890625 C-138.03291626 174.34378738 -137.69473877 174.89851227 -137.34631348 175.470047 C-136.22662334 177.31082506 -135.11259923 179.15492809 -134 181 C-133.60483185 181.65453156 -133.2096637 182.30906311 -132.80252075 182.98342896 C-130.28223911 187.16252076 -127.77582125 191.34969158 -125.27880859 195.54272461 C-124.41384958 196.9934052 -123.54693229 198.44291969 -122.67822266 199.89135742 C-121.40625801 202.01232187 -120.13998123 204.13658381 -118.875 206.26171875 C-118.48449463 206.91057541 -118.09398926 207.55943207 -117.69165039 208.22795105 C-115 212.77171653 -115 212.77171653 -115 215 C-125.23 215 -135.46 215 -146 215 C-147.59328125 212.08607422 -147.59328125 212.08607422 -149.21875 209.11328125 C-150.27719512 207.18307204 -151.33678806 205.25349713 -152.39648438 203.32397461 C-153.11903345 202.00692111 -153.84043247 200.68923587 -154.56054688 199.37084961 C-163.59820686 181.94460249 -163.59820686 181.94460249 -176 167 C-176 166.34 -176 165.68 -176 165 C-178.6796177 163.60900744 -181.33589432 162.42958868 -184.1875 161.4375 C-184.88230469 161.18871094 -185.57710937 160.93992188 -186.29296875 160.68359375 C-190.11546413 159.71831714 -194.08162301 159.43537522 -198 159 C-198 177.48 -198 195.96 -198 215 C-207.24 215 -216.48 215 -226 215 C-226 168.14 -226 121.28 -226 73 C-171 73 -171 73 -156 76 C-154.35 76.33 -152.7 76.66 -151 77 C-150.64808594 76.35933594 -150.29617187 75.71867187 -149.93359375 75.05859375 C-144.8811405 66.20690672 -139.39963924 60.71508076 -130.9375 55.1875 C-130.34775391 54.80198975 -129.75800781 54.41647949 -129.15039062 54.01928711 C-118.38173446 47.23473293 -105.25757947 46.39395346 -93 49.125 C-83.41769639 51.80000743 -75.1923775 56.13454875 -68 63 C-65.78598301 60.78598301 -64.26751737 57.84486349 -62.5703125 55.2265625 C-61 53 -61 53 -59.40625 51.44921875 C-57.7778986 49.77111217 -57.20038638 48.36768725 -56.375 46.1875 C-54.49373914 41.76399473 -52.1422781 37.79037996 -49.5625 33.75 C-49.19108887 33.15985107 -48.81967773 32.56970215 -48.43701172 31.96166992 C-45.97169658 28.16164714 -43.31687658 25.07347988 -40 22 C-39.16722534 21.20444702 -39.16722534 21.20444702 -38.31762695 20.39282227 C-32.79557209 15.30030006 -26.69389576 11.50868914 -20.25 7.6875 C-19.22261719 7.06810547 -18.19523438 6.44871094 -17.13671875 5.81054688 C-5.09945988 -1.41651663 -5.09945988 -1.41651663 0 0 Z M-92 107 C-101.25994454 118.24310298 -106.42150149 130.19476002 -106 145 C-104.89853886 154.01291758 -101.75331887 161.32392843 -97 169 C-96.67 169 -96.34 169 -96 169 C-95.97421875 168.17757812 -95.9484375 167.35515625 -95.921875 166.5078125 C-95.19220056 152.1464929 -89.8619823 141.04439219 -79.4375 131.09375 C-64.67875166 118.41636361 -45.88537869 105.86270623 -26 105 C-34.68187743 97.18631031 -45.94189989 93.50714091 -57.51171875 92.859375 C-70.33523435 93.58409488 -82.39512847 98.43643331 -92 107 Z M-198 96 C-198 109.2 -198 122.4 -198 136 C-181.04822301 137.4016279 -181.04822301 137.4016279 -166 131 C-161.37196143 126.37196143 -159.70923497 121.61109267 -159.625 115.125 C-159.75092322 109.42347643 -160.38120245 106.433027 -164 102 C-169.6884955 97.45157876 -174.81163966 95.85774012 -182.08203125 95.90234375 C-182.9222583 95.90484131 -183.76248535 95.90733887 -184.62817383 95.90991211 C-185.67900146 95.91901611 -186.7298291 95.92812012 -187.8125 95.9375 C-191.174375 95.958125 -194.53625 95.97875 -198 96 Z M-53 122 C-53.51949219 122.45777832 -54.03898438 122.91555664 -54.57421875 123.38720703 C-60.11724612 128.29775216 -65.34917823 133.22452496 -70 139 C-65.83478916 140.38840361 -62.95407546 138.88392465 -59 137.4375 C-58.2354248 137.15938477 -57.47084961 136.88126953 -56.68310547 136.59472656 C-44.91347894 132.20251932 -32.70062412 126.11834869 -26.16796875 114.8359375 C-24.78127719 112.13764114 -24.78127719 112.13764114 -25.3125 109.625 C-25.539375 109.08875 -25.76625 108.5525 -26 108 C-36.67486405 106.59541263 -45.60510391 115.47922885 -53 122 Z M-21 110 C-21.36351562 110.88751953 -21.36351562 110.88751953 -21.734375 111.79296875 C-22.06953125 112.58316406 -22.4046875 113.37335938 -22.75 114.1875 C-23.07484375 114.96480469 -23.3996875 115.74210937 -23.734375 116.54296875 C-26.56751787 122.04311339 -30.38085793 125.28052386 -35.5625 128.5 C-36.18382812 128.89018311 -36.80515625 129.28036621 -37.4453125 129.68237305 C-48.2566129 136.34924913 -59.44638435 139.83008277 -71.7109375 142.94140625 C-78.99338824 145.28528291 -82.83045227 151.89191722 -86.9375 158 C-87.33952637 158.58104492 -87.74155273 159.16208984 -88.15576172 159.76074219 C-90.87008515 163.96989328 -91.57359316 167.0369097 -91 172 C-89.13291495 174.36497439 -87.67938569 175.66030715 -85 177 C-66.98129906 178.66839823 -49.24518811 165.27186394 -35.87939453 154.56103516 C-31.91377875 151.26717347 -28.16400268 147.75581264 -24.453125 144.1796875 C-22.32523935 142.28898655 -20.60511579 141.08343601 -18 140 C-27.47817515 157.19227353 -52.20258525 171.10453203 -70.28125 177.2578125 C-75.11956531 178.57861697 -80.03331397 179.34124234 -85 180 C-77.42320059 187.31553047 -66.20615176 189.29461278 -56.06176758 189.31689453 C-45.17923501 189.10573508 -35.8585403 185.14278342 -27 179 C-25.948125 178.278125 -24.89625 177.55625 -23.8125 176.8125 C-13.93728304 166.93728304 -8.70045244 153.86937146 -8.68530273 140.05957031 C-8.91538818 128.68327437 -13.13278147 118.99407361 -20 110 C-20.33 110 -20.66 110 -21 110 Z " fill="#88B86B" transform="translate(367,3)"/>
<path d="M0 0 C10.43270798 9.48660456 15.12056862 22.48022655 17.09375 36.13671875 C17.50846399 23.03482847 16.94824134 12.64247207 10.09375 1.13671875 C10.42375 0.47671875 10.75375 -0.18328125 11.09375 -0.86328125 C16.70375 -0.53328125 22.31375 -0.20328125 28.09375 0.13671875 C31.0267045 5.8085024 33.52999131 11.51314088 35.82421875 17.46875 C36.1723764 18.36282562 36.52053406 19.25690125 36.87924194 20.17807007 C38.01660327 23.10049301 39.14886149 26.0248658 40.28125 28.94921875 C41.88630808 33.07749012 43.49403062 37.20472265 45.1015625 41.33203125 C45.51106644 42.38450546 45.92057037 43.43697968 46.34248352 44.52134705 C51.1049192 56.75304874 55.94041076 68.95575028 60.77987671 81.15713501 C61.49300108 82.95519521 62.20584435 84.75336693 62.91836548 86.55166626 C63.56090946 88.17327969 64.2041552 89.79461529 64.84823608 91.4156189 C65.99369455 94.30669325 67.11013846 97.18588414 68.09375 100.13671875 C72.97221079 88.52660552 77.71205428 76.85957138 82.46875 65.19921875 C83.12455551 63.59238724 83.12455551 63.59238724 83.79360962 61.95309448 C90.45133975 45.64037298 97.08690807 29.31879262 103.68701172 12.98266602 C103.98093307 12.25599731 104.27485443 11.52932861 104.5776825 10.78063965 C105.12054454 9.4384734 105.66275578 8.09604366 106.20417786 6.7532959 C107.11068538 4.51304177 108.01247223 2.29927429 109.09375 0.13671875 C120.64375 0.13671875 132.19375 0.13671875 144.09375 0.13671875 C144.09375 46.99671875 144.09375 93.85671875 144.09375 142.13671875 C135.18375 142.13671875 126.27375 142.13671875 117.09375 142.13671875 C116.59875 94.61671875 116.59875 94.61671875 116.09375 46.13671875 C97.03330522 94.11283858 97.03330522 94.11283858 78.09375 142.13671875 C71.49375 142.13671875 64.89375 142.13671875 58.09375 142.13671875 C53.76666303 132.95016613 49.80675486 123.68408497 46.06640625 114.24609375 C45.50915883 112.84795026 44.95156948 111.44994302 44.3936615 110.05206299 C42.93846884 106.40372715 41.48727749 102.75381429 40.03717041 99.10345459 C37.72258889 93.27907391 35.40152298 87.45727358 33.08099174 81.63526154 C32.28519576 79.63715627 31.49095253 77.63844034 30.69703674 75.6395874 C26.90313303 66.1056228 23.00146005 56.62687173 19.09375 47.13671875 C18.76375 78.48671875 18.43375 109.83671875 18.09375 142.13671875 C9.51375 142.13671875 0.93375 142.13671875 -7.90625 142.13671875 C-7.90625 95.27671875 -7.90625 48.41671875 -7.90625 0.13671875 C-1.90625 -0.86328125 -1.90625 -0.86328125 0 0 Z " fill="#0B76C2" transform="translate(383.90625,75.86328125)"/>
<path d="M0 0 C55 0 55 0 70 3 C72.97 3.495 72.97 3.495 76 4 C75.52309796 5.62566606 75.04340334 7.25051311 74.5625 8.875 C74.29566406 9.77992187 74.02882813 10.68484375 73.75390625 11.6171875 C73 14 73 14 72 16 C70.7131078 34.36746136 72.40372961 50.17789626 80 67 C80.67494235 68.66333251 81.34428838 70.32899297 82 72 C80.948125 72.4021875 80.948125 72.4021875 79.875 72.8125 C76.91073437 73.99217943 76.91073437 73.99217943 73.8125 75.625 C71 77 71 77 69 77 C69.4125 77.46148437 69.825 77.92296875 70.25 78.3984375 C76.56079652 85.52625679 82.66784194 92.63709129 87.62890625 100.7890625 C88.13617249 101.62114983 88.13617249 101.62114983 88.65368652 102.470047 C89.77337666 104.31082506 90.88740077 106.15492809 92 108 C92.39516815 108.65453156 92.7903363 109.30906311 93.19747925 109.98342896 C95.71776089 114.16252076 98.22417875 118.34969158 100.72119141 122.54272461 C101.58615042 123.9934052 102.45306771 125.44291969 103.32177734 126.89135742 C104.59374199 129.01232187 105.86001877 131.13658381 107.125 133.26171875 C107.51550537 133.91057541 107.90601074 134.55943207 108.30834961 135.22795105 C111 139.77171653 111 139.77171653 111 142 C100.77 142 90.54 142 80 142 C78.40671875 139.08607422 78.40671875 139.08607422 76.78125 136.11328125 C75.72280488 134.18307204 74.66321194 132.25349713 73.60351562 130.32397461 C72.88096655 129.00692111 72.15956753 127.68923587 71.43945312 126.37084961 C62.40179314 108.94460249 62.40179314 108.94460249 50 94 C50 93.34 50 92.68 50 92 C47.3203823 90.60900744 44.66410568 89.42958868 41.8125 88.4375 C41.11769531 88.18871094 40.42289063 87.93992187 39.70703125 87.68359375 C35.88453587 86.71831714 31.91837699 86.43537522 28 86 C28 104.48 28 122.96 28 142 C18.76 142 9.52 142 0 142 C0 95.14 0 48.28 0 0 Z M28 23 C28 36.2 28 49.4 28 63 C44.95177699 64.4016279 44.95177699 64.4016279 60 58 C64.62803857 53.37196143 66.29076503 48.61109267 66.375 42.125 C66.24907678 36.42347643 65.61879755 33.433027 62 29 C56.3115045 24.45157876 51.18836034 22.85774012 43.91796875 22.90234375 C43.0777417 22.90484131 42.23751465 22.90733887 41.37182617 22.90991211 C40.32099854 22.91901611 39.2701709 22.92812012 38.1875 22.9375 C34.825625 22.958125 31.46375 22.97875 28 23 Z " fill="#0B75C2" transform="translate(141,76)"/>
<path d="M0 0 C0 8.91 0 17.82 0 27 C-3.7319132 25.75602893 -6.93468724 24.59843149 -10.4375 23 C-22.3663972 18.25697062 -37.60333583 17.14669167 -49.71484375 22.11328125 C-53.35937718 24.24200511 -55.43265242 26.00769957 -57 30 C-57.38691795 32.15276456 -57.38691795 32.15276456 -57.375 34.375 C-57.41753906 35.46941406 -57.41753906 35.46941406 -57.4609375 36.5859375 C-56.55151452 41.34884767 -53.99012342 44.29620957 -50.109375 47.0546875 C-49.00078125 47.65539062 -47.8921875 48.25609375 -46.75 48.875 C-46.1430127 49.20886719 -45.53602539 49.54273438 -44.91064453 49.88671875 C-40.96272249 52.03300572 -36.94540268 54.02911642 -32.90966797 56.00390625 C-17.77239779 63.41452088 -2.02897585 72.30235819 4 89 C6.90264925 97.98648479 6.92704471 108.10091365 3.25 116.875 C2.53431383 118.26816844 1.78537539 119.64489466 1 121 C0.47599609 121.93779297 0.47599609 121.93779297 -0.05859375 122.89453125 C-5.80550661 132.02198109 -17.08442141 136.93337546 -27.1862793 139.57080078 C-33.77925865 141.04321749 -40.19604043 141.38550808 -46.9375 141.375 C-48.02345459 141.37338867 -49.10940918 141.37177734 -50.22827148 141.37011719 C-63.58814285 141.17008682 -74.9888225 139.00558875 -87 133 C-87 124.09 -87 115.18 -87 106 C-82.62622937 106.87475413 -80.44266674 107.71449312 -76.6875 109.8125 C-63.01835839 116.79857607 -48.5258682 119.0960297 -33.609375 114.98046875 C-29.10465031 113.28782519 -27.0182835 110.71256771 -24.625 106.6875 C-23.59106565 102.24158229 -23.68039956 98.23334057 -26.0168457 94.27905273 C-30.49522938 88.76450994 -35.87631808 86.01761787 -42.1875 82.9375 C-44.16068011 81.94765817 -46.13333802 80.95677467 -48.10546875 79.96484375 C-49.07758301 79.47943115 -50.04969727 78.99401855 -51.05126953 78.49389648 C-59.30880852 74.31043225 -66.95941143 70.05383941 -74 64 C-74.639375 63.45601563 -75.27875 62.91203125 -75.9375 62.3515625 C-82.53785404 56.29175469 -86.69320435 48.39842351 -87.203125 39.42578125 C-87.43622294 27.43580585 -86.16475538 19.63954246 -78.23828125 10.29296875 C-59.21457579 -9.19553929 -23.86911059 -9.54764424 0 0 Z " fill="#0A75C2" transform="translate(700,79)"/>
<path d="M0 0 C0 8.91 0 17.82 0 27 C-6 25 -6 25 -8.61328125 24 C-23.94410483 18.32027375 -40.40318871 17.03573724 -55.65625 23.74609375 C-63.03448718 27.69345064 -68.54220117 32.95777179 -73 40 C-73.37898438 40.59167969 -73.75796875 41.18335938 -74.1484375 41.79296875 C-80.86104452 53.62835481 -81.82288564 69.39768929 -78.74609375 82.46875 C-75.29078412 94.19147585 -69.9630585 103.80395488 -59.07421875 110.0078125 C-44.8534345 116.81022154 -29.92245525 115.84366272 -15 112 C-11.67829585 110.80759338 -8.51005901 109.49430363 -5.3203125 107.98828125 C-3 107 -3 107 0 107 C0 115.25 0 123.5 0 132 C-23.24552351 141.556493 -48.44747716 144.22600975 -72.2109375 134.71484375 C-79.65263749 131.35014565 -85.28351756 126.77634089 -91 121 C-91.62519531 120.40832031 -92.25039062 119.81664062 -92.89453125 119.20703125 C-106.60297043 105.18914649 -110.18844469 84.85649755 -110 66 C-109.2512004 45.59408999 -102.18524172 27.90430927 -88 13 C-77.78072615 4.0104313 -66.33135934 -2.18380099 -53 -5 C-52.13890625 -5.18433594 -51.2778125 -5.36867188 -50.390625 -5.55859375 C-33.4745608 -7.76080026 -15.71985599 -6.73708114 0 0 Z " fill="#0A75C2" transform="translate(118,80)"/>
<path d="M0 0 C9.24 0 18.48 0 28 0 C28 46.86 28 93.72 28 142 C18.76 142 9.52 142 0 142 C0 95.14 0 48.28 0 0 Z " fill="#0573C1" transform="translate(561,76)"/>
<path d="M0 0 C3.66033152 3.3478642 4.83458749 7.4607321 5.9375 12.1875 C1.14922435 11.26667776 -2.90065428 8.79165977 -7.1875 6.5625 C-16.386235 2.163105 -29.35109791 3.05492695 -39 5.6875 C-50.05088969 9.68196517 -58.32922844 16.93199553 -64.0625 27.1875 C-64.97195849 30.01883304 -65.31567585 31.47194509 -64.3203125 34.28515625 C-63.94648438 34.93355469 -63.57265625 35.58195312 -63.1875 36.25 C-58.92321168 43.77960001 -59.21272434 52.72926786 -60.0625 61.1875 C-60.91082635 64.18159301 -61.90916359 66.81324013 -63.28515625 69.59765625 C-64.99978157 75.31020193 -63.2694307 80.54133477 -60.58862305 85.66479492 C-60.25000244 86.2704126 -59.91138184 86.87603027 -59.5625 87.5 C-59.20647705 88.14880127 -58.8504541 88.79760254 -58.48364258 89.46606445 C-55.00042975 95.61956334 -50.7934005 100.93772654 -46.0625 106.1875 C-45.61970703 106.68378906 -45.17691406 107.18007812 -44.72070312 107.69140625 C-28.12079449 126.27026612 -7.62635317 146.90557342 14.9375 158.1875 C14.9375 158.8475 14.9375 159.5075 14.9375 160.1875 C8.75744998 161.55490291 8.75744998 161.55490291 5.19140625 159.95703125 C4.30324219 159.31121094 3.41507812 158.66539062 2.5 158 C1.47132813 157.26265625 0.44265625 156.5253125 -0.6171875 155.765625 C-1.76637852 154.90725789 -2.91477196 154.04782228 -4.0625 153.1875 C-5.37712691 152.22330728 -6.69225095 151.25979208 -8.0078125 150.296875 C-20.28325108 141.25089082 -32.00756669 131.69984043 -43.0625 121.1875 C-43.68318359 120.60081543 -44.30386719 120.01413086 -44.94335938 119.40966797 C-66.56704127 98.83728551 -83.60361352 76.39312259 -84.45678711 45.49414062 C-84.65642929 30.5063144 -83.09060819 17.79684881 -72.90234375 6.0703125 C-52.50431975 -14.80409848 -23.88641143 -18.06535318 0 0 Z " fill="#F91A2F" transform="translate(296.0625,62.8125)"/>
<path d="M0 0 C8 0 8 0 10.1015625 1.29296875 C24.6027354 19.32647863 25.62133382 40.71192718 25.171875 62.8515625 C25.1418957 65.09025726 25.11379264 67.32897784 25.08746338 69.56771851 C25.01395752 75.39744681 24.9153458 81.22647637 24.81109619 87.0557251 C24.70884802 93.02912243 24.63090607 99.00283471 24.55078125 104.9765625 C24.39067285 116.65150159 24.20172937 128.32570585 24 140 C16.08 140 8.16 140 0 140 C0 93.8 0 47.6 0 0 Z " fill="#006FBF" transform="translate(377,77)"/>
<path d="M0 0 C0.25287193 6.06892629 -0.30167391 11.16200408 -2 17 C-1.2265625 17.17015625 -0.453125 17.3403125 0.34375 17.515625 C13.59448785 20.59871747 24.9785138 26.57545906 33 38 C34.06902939 40.30252483 35.07175817 42.6372026 36 45 C36.515625 45.94875 37.03125 46.8975 37.5625 47.875 C40.86522679 55.05484085 41.28242253 62.2579753 41.125 70.0625 C41.11597656 70.92810547 41.10695313 71.79371094 41.09765625 72.68554688 C41.07439723 74.79048779 41.03854008 76.89528342 41 79 C38.36429323 76.36429323 38.4676621 74.53948822 37.875 70.875 C35.29381713 58.33045126 29.96409548 46.26647268 19 39 C18.25234375 38.50113281 17.5046875 38.00226563 16.734375 37.48828125 C9.58236712 33.35574689 2.09636018 32.72327484 -6 32 C-6.11601562 32.72703125 -6.23203125 33.4540625 -6.3515625 34.203125 C-8.39089225 42.99927021 -14.49317993 48.79749712 -21.21875 54.3828125 C-24.46744457 56.27180064 -26.30244105 56.314902 -30 56 C-30.99 56 -31.98 56 -33 56 C-33.33 56.66 -33.66 57.32 -34 58 C-37.3 57.67 -40.6 57.34 -44 57 C-44 56.01 -44 55.02 -44 54 C-42.68 54.33 -41.36 54.66 -40 55 C-39.67 53.68 -39.34 52.36 -39 51 C-38.34 51 -37.68 51 -37 51 C-37.33 50.01 -37.66 49.02 -38 48 C-43.68697571 47.08602176 -48.31302429 47.08602176 -54 48 C-54.33 47.34 -54.66 46.68 -55 46 C-53.02 46 -51.04 46 -49 46 C-48.67 41.05 -48.34 36.1 -48 31 C-47.67 31 -47.34 31 -47 31 C-47 35.29 -47 39.58 -47 44 C-46.05125 43.525625 -45.1025 43.05125 -44.125 42.5625 C-42.41666667 41.70833333 -40.70833333 40.85416667 -39 40 C-38.62127066 38.34305915 -38.29749946 36.67343448 -38 35 C-37.35610218 32.99255385 -36.69437747 30.99054876 -36 29 C-35.01 29 -34.02 29 -33 29 C-32.9175 28.113125 -32.835 27.22625 -32.75 26.3125 C-31.88864916 22.50820044 -30.70031549 20.77746736 -28 18 C-27.319375 17.690625 -26.63875 17.38125 -25.9375 17.0625 C-23.02492607 15.46528204 -22.37405089 12.93547235 -21 10 C-18.04335481 8.5216774 -15.25770263 8.93967217 -12 9 C-11.91492188 8.39671875 -11.82984375 7.7934375 -11.7421875 7.171875 C-10.78295198 4.36484894 -9.6462937 3.74615231 -7.125 2.25 C-6.42632812 1.82203125 -5.72765625 1.3940625 -5.0078125 0.953125 C-3 0 -3 0 0 0 Z " fill="#548F36" transform="translate(361,35)"/>
<path d="M0 0 C-0.60276549 3.5460913 -0.90943983 3.92858068 -3.95703125 6.33203125 C-5.23414438 7.17122419 -6.51990611 7.99735354 -7.8125 8.8125 C-8.82703247 9.47378906 -8.82703247 9.47378906 -9.86206055 10.1484375 C-13.9261848 12.7721187 -18.06960657 15.17414305 -22.3125 17.5 C-33.32598297 23.84825426 -40.22564082 33.56028706 -47 44 C-46.30777344 43.81824219 -45.61554688 43.63648438 -44.90234375 43.44921875 C-38.94100121 41.91764853 -32.96224506 40.50671784 -26.9375 39.25 C-25.06384766 38.85554688 -25.06384766 38.85554688 -23.15234375 38.453125 C-20 38 -20 38 -17 39 C-17.495 39.99 -17.495 39.99 -18 41 C-20.06640625 41.4140625 -20.06640625 41.4140625 -22.5625 41.625 C-23.38878906 41.69976562 -24.21507812 41.77453125 -25.06640625 41.8515625 C-25.70449219 41.90054688 -26.34257812 41.94953125 -27 42 C-27.2784375 43.3303125 -27.2784375 43.3303125 -27.5625 44.6875 C-29.05363578 48.12359549 -29.46238133 48.53594985 -32.4375 50.375 C-36.77887891 53.13358452 -37.60320089 56.15228543 -39 61 C-39.99 61 -40.98 61 -42 61 C-41.9175 61.66 -41.835 62.32 -41.75 63 C-42.09496485 67.13957826 -43.58107257 70.6179811 -46 74 C-48.63350979 75.66964521 -49.8235959 76 -53 76 C-53.33 75.34 -53.66 74.68 -54 74 C-54.33 75.32 -54.66 76.64 -55 78 C-56.98 78 -58.96 78 -61 78 C-61.495 75.03 -61.495 75.03 -62 72 C-63.485 72.495 -63.485 72.495 -65 73 C-68.45038298 66.57514894 -68.45038298 66.57514894 -67.26171875 62.41796875 C-64.81875893 57.37321891 -61.95242649 53.95242649 -58 50 C-57.36661509 48.71090824 -56.78888627 47.39386607 -56.25 46.0625 C-54.43647468 41.65822421 -52.12028397 37.75059619 -49.5625 33.75 C-49.19092773 33.15968994 -48.81935547 32.56937988 -48.43652344 31.96118164 C-45.97159051 28.16116626 -43.31669602 25.07331258 -40 22 C-39.44481689 21.46963135 -38.88963379 20.9392627 -38.31762695 20.39282227 C-32.79557209 15.30030006 -26.69389576 11.50868914 -20.25 7.6875 C-18.70892578 6.7584082 -18.70892578 6.7584082 -17.13671875 5.81054688 C-5.09945988 -1.41651663 -5.09945988 -1.41651663 0 0 Z " fill="#7FAA3C" transform="translate(367,3)"/>
<path d="M0 0 C1.62463842 -0.05395478 3.24978541 -0.09277195 4.875 -0.125 C6.23238281 -0.15980469 6.23238281 -0.15980469 7.6171875 -0.1953125 C10 0 10 0 12 2 C12.76533023 6.02534265 12.84604402 10.11386517 11.1484375 13.8984375 C0.5143775 27.79447909 -20.52715052 34.14638352 -36.63671875 37.83203125 C-44.58275368 40.59145569 -49.86901478 49.53167773 -53.9140625 56.59375 C-55.50714451 60.12374466 -55.85724461 63.1456044 -56 67 C-56.99 67 -57.98 67 -59 67 C-62.14517359 60.70965283 -60.8602106 49.60184439 -59.26953125 42.94140625 C-52.74255067 28.59147421 -37.86114569 18.24178458 -24.9375 10.25 C-24.19363037 9.78972412 -23.44976074 9.32944824 -22.68334961 8.85522461 C-8.32314908 0.1841098 -8.32314908 0.1841098 -2 1 C-3.39595795 5.85587827 -5.76400622 7.66932005 -9.8125 10.5625 C-14.80936243 14.23664281 -19.51057643 18.09819215 -24.0625 22.3125 C-24.59786377 22.80371338 -25.13322754 23.29492676 -25.68481445 23.80102539 C-28.75491518 26.6703194 -31.45900961 29.65466733 -34 33 C-18.15327614 29.16309639 -1.52445641 23.05748647 8 9 C9.10979166 5.66306555 9.10979166 5.66306555 9 3 C6.03 2.67 3.06 2.34 0 2 C0 1.34 0 0.68 0 0 Z " fill="#213780" transform="translate(332,109)"/>
<path d="M0 0 C-0.05220703 1.93939453 -0.05220703 1.93939453 -0.10546875 3.91796875 C-0.38060613 18.41226155 0.8754938 30.09886716 8 43 C8.33 39.04 8.66 35.08 9 31 C9.33 31 9.66 31 10 31 C9.98839844 31.97582031 9.97679687 32.95164063 9.96484375 33.95703125 C9.95582031 35.22933594 9.94679688 36.50164062 9.9375 37.8125 C9.92589844 39.07707031 9.91429687 40.34164062 9.90234375 41.64453125 C9.83840884 44.99605237 9.83840884 44.99605237 11 48 C11.8971875 47.6596875 11.8971875 47.6596875 12.8125 47.3125 C13.8953125 47.1578125 13.8953125 47.1578125 15 47 C16.625 48.375 16.625 48.375 18 50 C22.96801383 52.48400691 28.50825745 51.04833071 33.5625 49.5 C51.69808191 42.94661532 66.85988901 31.44404691 80.546875 18.08203125 C82.84987019 16.12741909 84.05263112 15.35120517 87 15 C86.23568407 22.02520174 77.2894322 27.3020885 72.10742188 31.55224609 C57.12772711 43.57303546 41.1890589 52.8365109 22 56 C23.49434423 56.80229137 24.99586472 57.59121867 26.5 58.375 C27.3353125 58.81585938 28.170625 59.25671875 29.03125 59.7109375 C36.89971611 63.12750831 44.03420885 63.25664508 52.5 63.125 C53.60859375 63.11597656 54.7171875 63.10695312 55.859375 63.09765625 C58.57314592 63.07426167 61.28645545 63.04148175 64 63 C63.67 64.65 63.34 66.3 63 68 C47.32998091 71.28045259 32.53809514 70.1672118 18.5234375 61.75 C6.37704604 53.32649632 -1.78754045 42.12650294 -5.58984375 27.7734375 C-6.17105879 23.84331678 -6.18427951 19.96764779 -6.1875 16 C-6.19974609 15.2059375 -6.21199219 14.411875 -6.22460938 13.59375 C-6.23526809 9.33026443 -6.16763263 5.8023589 -4 2 C-1 0 -1 0 0 0 Z M64 62 C66 63 66 63 66 63 Z " fill="#70AB72" transform="translate(262,128)"/>
<path d="M0 0 C10.75925469 -0.95637819 19.12989703 4.21072486 27.328125 10.69921875 C33.02464005 15.60455116 36.29455021 19.91429816 39 27 C39.515625 27.94875 40.03125 28.8975 40.5625 29.875 C43.86522679 37.05484085 44.28242253 44.2579753 44.125 52.0625 C44.11597656 52.92810547 44.10695313 53.79371094 44.09765625 54.68554688 C44.07439723 56.79048779 44.03854008 58.89528342 44 61 C41.36429323 58.36429323 41.4676621 56.53948822 40.875 52.875 C38.51804512 41.4201993 33.78596745 29.94879375 24.38671875 22.55078125 C20.43206906 19.98122981 16.32256843 17.87702345 12 16 C12 15.34 12 14.68 12 14 C7.05 13.67 2.1 13.34 -3 13 C-2.01 8.71 -1.02 4.42 0 0 Z " fill="#F4142B" transform="translate(358,53)"/>
<path d="M0 0 C0.99 0 1.98 0 3 0 C3.25287193 6.06892629 2.69832609 11.16200408 1 17 C1.66 17.33 2.32 17.66 3 18 C2.01 18 1.02 18 0 18 C-0.04898438 18.60328125 -0.09796875 19.2065625 -0.1484375 19.828125 C-0.22320312 20.62734375 -0.29796875 21.4265625 -0.375 22.25 C-0.44460938 23.03890625 -0.51421875 23.8278125 -0.5859375 24.640625 C-1.01507113 27.085877 -1.78600638 28.84836903 -3 31 C-2.16855469 30.97679688 -1.33710938 30.95359375 -0.48046875 30.9296875 C0.60621094 30.91164063 1.69289063 30.89359375 2.8125 30.875 C3.89144531 30.85179688 4.97039062 30.82859375 6.08203125 30.8046875 C9 31 9 31 12 33 C7.05 32.67 2.1 32.34 -3 32 C-3.33 33.65 -3.66 35.3 -4 37 C-5.19140625 39.23828125 -5.19140625 39.23828125 -6.5625 41.3125 C-7.01753906 42.00988281 -7.47257812 42.70726562 -7.94140625 43.42578125 C-8.29074219 43.94527344 -8.64007813 44.46476562 -9 45 C-9 41.76344816 -8.3449153 40.21247361 -7 37.3125 C-6.62875 36.50425781 -6.2575 35.69601563 -5.875 34.86328125 C-5.441875 33.94095703 -5.441875 33.94095703 -5 33 C-5.71929687 33.72574219 -6.43859375 34.45148438 -7.1796875 35.19921875 C-19.65675226 47.58987725 -19.65675226 47.58987725 -26.8125 47.6875 C-30.75418421 47.34302617 -34.348531 46.57901362 -38 45 C-34.56183726 42.1515951 -31.03879097 39.73046528 -27.25 37.375 C-19.48318337 32.251391 -13.65862035 26.03550388 -9 18 C-7.21704443 15.20048179 -5.42000822 12.41037834 -3.62109375 9.62109375 C-2.278971 7.45105914 -1.08957067 5.30381858 0 3 C-0.66 2.67 -1.32 2.34 -2 2 C-1.34 1.34 -0.68 0.68 0 0 Z " fill="#6B9B38" transform="translate(358,35)"/>
<path d="M0 0 C-0.60276549 3.5460913 -0.90943983 3.92858068 -3.95703125 6.33203125 C-5.23414438 7.17122419 -6.51990611 7.99735354 -7.8125 8.8125 C-8.82703247 9.47378906 -8.82703247 9.47378906 -9.86206055 10.1484375 C-13.9261848 12.7721187 -18.06960657 15.17414305 -22.3125 17.5 C-31.76604571 22.93103029 -38.0120861 30.75956035 -44.18359375 39.57421875 C-47.17910705 43.57467845 -50.18462319 46.3948744 -55 48 C-52.94085908 36.91066817 -47.37341756 28.5146055 -39 21 C-38.03578125 20.11441406 -37.0715625 19.22882812 -36.078125 18.31640625 C-31.22551713 14.1657917 -25.78284936 11.01216665 -20.3125 7.75 C-19.28060547 7.12609375 -18.24871094 6.5021875 -17.18554688 5.859375 C-5.10221768 -1.41728269 -5.10221768 -1.41728269 0 0 Z " fill="#5D8E6E" transform="translate(367,3)"/>
<path d="M0 0 C1.24546405 2.49092811 0.7767578 3.41080733 0 6 C2.88437779 4.70700306 4.87219421 3.34058637 7 1 C6.67 3.31 6.34 5.62 6 8 C5.01 8 4.02 8 3 8 C3.33 8.66 3.66 9.32 4 10 C4.99 10 5.98 10 7 10 C7 10.66 7 11.32 7 12 C5.33333333 13.66666667 3.66666667 15.33333333 2 17 C0.91534997 20.25395008 0.71733072 23.01842206 0.5 26.4375 C0.2680198 30.07876068 0.03413692 33.49255227 -1 37 C-2.98 37 -4.96 37 -7 37 C-7.33 35.02 -7.66 33.04 -8 31 C-8.99 31.33 -9.98 31.66 -11 32 C-14.45038298 25.57514894 -14.45038298 25.57514894 -13.26171875 21.41796875 C-10.81875893 16.37321891 -7.95242649 12.95242649 -4 9 C-2.46785147 6.07498917 -1.19913815 3.07488497 0 0 Z " fill="#A7C634" transform="translate(313,44)"/>
<path d="M0 0 C6.95493118 8.70861011 8.14692778 18.97825097 7.30126953 29.79833984 C6.48130178 35.79061636 4.27116014 41.42754636 2 47 C-4.97871289 36.53193066 -5.51607327 22.43886568 -3.3515625 10.390625 C-1.62731481 3.25462963 -1.62731481 3.25462963 0 0 Z " fill="#1976BE" transform="translate(229,92)"/>
<path d="M0 0 C0.99 0 1.98 0 3 0 C2.23568407 7.02520174 -6.7105678 12.3020885 -11.89257812 16.55224609 C-26.16945992 28.00904756 -44.8049177 41.34702332 -64 40 C-67.42634728 38.70703876 -69.41076615 37.93741749 -71.375 34.8125 C-71.58125 34.214375 -71.7875 33.61625 -72 33 C-70.515 32.505 -70.515 32.505 -69 32 C-68.54625 32.474375 -68.0925 32.94875 -67.625 33.4375 C-65.18751363 35.78123689 -64.08125386 35.99247649 -60.625 36.3125 C-37.85304618 35.86278457 -15.16546601 15.16546601 0 0 Z " fill="#6B7BAC" transform="translate(346,143)"/>
<path d="M0 0 C1.62463842 -0.05395478 3.24978541 -0.09277195 4.875 -0.125 C6.23238281 -0.15980469 6.23238281 -0.15980469 7.6171875 -0.1953125 C10 0 10 0 12 2 C12.76533023 6.02534265 12.84604402 10.11386517 11.1484375 13.8984375 C0.79538127 27.42727785 -20.90820268 35.12119484 -36.921875 37.609375 C-37.93765625 37.73828125 -38.9534375 37.8671875 -40 38 C-40 37.34 -40 36.68 -40 36 C-36.93571506 33.95714337 -35.51868722 33.67742039 -32 33 C-17.43497076 28.6680582 -0.22147213 22.80571476 7.78125 8.90625 C9.19336334 6.06414457 9.19336334 6.06414457 9 3 C6.03 2.67 3.06 2.34 0 2 C0 1.34 0 0.68 0 0 Z " fill="#5F6FA5" transform="translate(332,109)"/>
<path d="M0 0 C-0.33 1.98 -0.66 3.96 -1 6 C-2.32 6 -3.64 6 -5 6 C-4.92523438 6.88816406 -4.85046875 7.77632812 -4.7734375 8.69140625 C-5.04659432 12.68043778 -6.0392455 13.94983984 -8.625 16.9375 C-9.72134766 18.21947266 -9.72134766 18.21947266 -10.83984375 19.52734375 C-11.55269531 20.34332031 -12.26554687 21.15929687 -13 22 C-13.55816406 22.70253906 -14.11632812 23.40507813 -14.69140625 24.12890625 C-15.18511719 24.74636719 -15.67882812 25.36382812 -16.1875 26 C-16.61417969 26.53625 -17.04085938 27.0725 -17.48046875 27.625 C-19.45338096 29.41025732 -21.50792562 30.12882106 -24 31 C-21.93282736 19.86741402 -16.27393153 11.58443723 -8 4 C-7.319375 3.236875 -6.63875 2.47375 -5.9375 1.6875 C-4 0 -4 0 0 0 Z " fill="#526649" transform="translate(336,20)"/>
<path d="M0 0 C0.99 0 1.98 0 3 0 C3.25287193 6.06892629 2.69832609 11.16200408 1 17 C1.66 17.33 2.32 17.66 3 18 C0.69 18.33 -1.62 18.66 -4 19 C-4 19.66 -4 20.32 -4 21 C-5.47704212 22.25227484 -6.95827399 23.50166522 -8.4921875 24.68359375 C-10.26762944 26.11764091 -10.26762944 26.11764091 -12 29 C-13.2065625 29.680625 -13.2065625 29.680625 -14.4375 30.375 C-17.36458093 32.23119766 -18.31556373 34.03218372 -20 37 C-20.66 37 -21.32 37 -22 37 C-22.33 37.99 -22.66 38.98 -23 40 C-24.32 39.67 -25.64 39.34 -27 39 C-27 38.34 -27 37.68 -27 37 C-25.49609375 35.7734375 -25.49609375 35.7734375 -23.4375 34.375 C-17.25988788 29.89513589 -12.83866203 24.55525363 -9 18 C-7.21704443 15.20048179 -5.42000822 12.41037834 -3.62109375 9.62109375 C-2.278971 7.45105914 -1.08957067 5.30381858 0 3 C-0.66 2.67 -1.32 2.34 -2 2 C-1.34 1.34 -0.68 0.68 0 0 Z " fill="#9ABF37" transform="translate(358,35)"/>
<path d="M0 0 C0 3 0 3 -1.9765625 5.04296875 C-2.85054688 5.75066406 -3.72453125 6.45835938 -4.625 7.1875 C-5.48351562 7.90292969 -6.34203125 8.61835937 -7.2265625 9.35546875 C-10.47553902 11.28197454 -12.2854185 11.31039654 -16 11 C-16.99 11 -17.98 11 -19 11 C-19.33 11.66 -19.66 12.32 -20 13 C-23.3 12.67 -26.6 12.34 -30 12 C-30 11.01 -30 10.02 -30 9 C-28.68 9.33 -27.36 9.66 -26 10 C-25.67 8.68 -25.34 7.36 -25 6 C-24.34 6 -23.68 6 -23 6 C-22.67 5.01 -22.34 4.02 -22 3 C-18.7 3.33 -15.4 3.66 -12 4 C-12 4.66 -12 5.32 -12 6 C-11.4225 5.360625 -10.845 4.72125 -10.25 4.0625 C-8.01937599 2.01776132 -6.92563609 1.41794801 -4 1 C-3.67 1.66 -3.34 2.32 -3 3 C-2.01 2.01 -1.02 1.02 0 0 Z " fill="#79A83A" transform="translate(347,80)"/>
<path d="M0 0 C2 1 2 1 2 1 Z M-34 1 C-31.96301272 1.24167646 -29.92626013 1.4854685 -27.890625 1.73828125 C-18.20474415 2.9189147 -18.20474415 2.9189147 -9 1 C-7.45976004 0.93049459 -5.91665012 0.91547643 -4.375 0.9375 C-3.14910156 0.95103516 -3.14910156 0.95103516 -1.8984375 0.96484375 C-1.27195312 0.97644531 -0.64546875 0.98804688 0 1 C-0.33 2.65 -0.66 4.3 -1 6 C-11.18266757 8.13169863 -20.90481687 9.29860562 -31 6 C-33.625 3.875 -33.625 3.875 -35 2 C-34.67 1.67 -34.34 1.34 -34 1 Z " fill="#5DA260" transform="translate(326,190)"/>
<path d="M0 0 C-0.33 2.97 -0.66 5.94 -1 9 C-1.99 9 -2.98 9 -4 9 C-6.16766814 10.47396071 -6.16766814 10.47396071 -8.375 12.375 C-10.82572391 14.42148079 -12.76274286 15.90523253 -15.73828125 17.09375 C-16.48464844 17.3928125 -17.23101562 17.691875 -18 18 C-18.88693303 20.04105639 -18.88693303 20.04105639 -19 22 C-20.32 22 -21.64 22 -23 22 C-22.6875 20.0625 -22.6875 20.0625 -22 18 C-21.01 17.67 -20.02 17.34 -19 17 C-18.525625 16.195625 -18.05125 15.39125 -17.5625 14.5625 C-16 12 -16 12 -14.09765625 11.06640625 C-11.674901 9.8347262 -10.54480877 8.49941639 -8.875 6.375 C-7.3671875 4.4609375 -7.3671875 4.4609375 -6 3 C-5.34 3 -4.68 3 -4 3 C-4 2.34 -4 1.68 -4 1 C-2 0 -2 0 0 0 Z " fill="#8FB036" transform="translate(358,53)"/>
<path d="M0 0 C1.24546405 2.49092811 0.7767578 3.41080733 0 6 C2.88437779 4.70700306 4.87219421 3.34058637 7 1 C6.67 3.31 6.34 5.62 6 8 C5.01 8 4.02 8 3 8 C3 8.99 3 9.98 3 11 C2.34 10.67 1.68 10.34 1 10 C1.33 9.34 1.66 8.68 2 8 C1.34 8 0.68 8 0 8 C-0.433125 8.8971875 -0.433125 8.8971875 -0.875 9.8125 C-2 12 -2 12 -4 15 C-4.66 15 -5.32 15 -6 15 C-6.12375 15.969375 -6.2475 16.93875 -6.375 17.9375 C-6.58125 18.948125 -6.7875 19.95875 -7 21 C-7.66 21.33 -8.32 21.66 -9 22 C-9.72159424 23.64363134 -10.39351421 25.31050386 -11 27 C-11.99 26.01 -12.98 25.02 -14 24 C-11.26165622 17.99894873 -8.68267645 13.68267645 -4 9 C-2.46785147 6.07498917 -1.19913815 3.07488497 0 0 Z " fill="#CDD97C" transform="translate(313,44)"/>
<path d="M0 0 C0.66 0 1.32 0 2 0 C2 0.66 2 1.32 2 2 C3.65 2 5.3 2 7 2 C7 2.66 7 3.32 7 4 C5.33333333 5.66666667 3.66666667 7.33333333 2 9 C0.91534997 12.25395008 0.71733072 15.01842206 0.5 18.4375 C0.2680198 22.07876068 0.03413692 25.49255227 -1 29 C-3.475 28.01 -3.475 28.01 -6 27 C-5.71125 26.11957031 -5.4225 25.23914063 -5.125 24.33203125 C-4.75375 23.17058594 -4.3825 22.00914063 -4 20.8125 C-3.443125 19.08966797 -3.443125 19.08966797 -2.875 17.33203125 C-1.74165233 13.01620285 -1.59154799 10.22535604 -3 6 C-2.34 5.67 -1.68 5.34 -1 5 C-0.34444881 2.47266765 -0.34444881 2.47266765 0 0 Z " fill="#96BD38" transform="translate(313,52)"/>
<path d="M0 0 C0.99 0.33 1.98 0.66 3 1 C2.06093007 3.41475126 1.14667138 5.73925087 -0.125 8 C-1.19376273 10.44288623 -1.1465693 12.36175261 -1 15 C-1.99 15.33 -2.98 15.66 -4 16 C-4.33 15.34 -4.66 14.68 -5 14 C-5.226875 15.093125 -5.45375 16.18625 -5.6875 17.3125 C-7 21 -7 21 -9.625 22.9375 C-10.40875 23.288125 -11.1925 23.63875 -12 24 C-12.33 23.34 -12.66 22.68 -13 22 C-12.34 22 -11.68 22 -11 22 C-10.87625 21.29875 -10.7525 20.5975 -10.625 19.875 C-9.96161655 16.82343613 -9.02788045 13.94659062 -8 11 C-7.01 11 -6.02 11 -5 11 C-4.9175 10.113125 -4.835 9.22625 -4.75 8.3125 C-3.9065914 4.58744536 -2.54447236 2.79071162 0 0 Z " fill="#669939" transform="translate(333,53)"/>
<path d="M0 0 C0.66 0.66 1.32 1.32 2 2 C1.67 2.66 1.34 3.32 1 4 C0.34 4 -0.32 4 -1 4 C-1.33 5.32 -1.66 6.64 -2 8 C-3.32 7.67 -4.64 7.34 -6 7 C-6 7.99 -6 8.98 -6 10 C-6.66 10 -7.32 10 -8 10 C-8 8.68 -8 7.36 -8 6 C-10.475 5.01 -10.475 5.01 -13 4 C-12.67 2.68 -12.34 1.36 -12 0 C-7.88779344 -1.54207746 -4.22170714 -0.74901256 0 0 Z " fill="#9DC137" transform="translate(323,82)"/>
<path d="M0 0 C0.25390625 2.31640625 0.25390625 2.31640625 0 5 C-1.72265625 6.58984375 -1.72265625 6.58984375 -4.0625 7.9375 C-8.46115959 10.6170632 -12.16182547 13.57014191 -16 17 C-16 15.35 -16 13.7 -16 12 C-14.68 12 -13.36 12 -12 12 C-11.67 10.02 -11.34 8.04 -11 6 C-11.66 5.67 -12.32 5.34 -13 5 C-9.32049748 1.76203778 -4.94759086 0 0 0 Z " fill="#789981" transform="translate(347,14)"/>
<path d="M0 0 C0.66 0.33 1.32 0.66 2 1 C2 1.99 2 2.98 2 4 C2.7734375 4.7115625 2.7734375 4.7115625 3.5625 5.4375 C4.036875 5.953125 4.51125 6.46875 5 7 C4.875 9.125 4.875 9.125 4 11 C3.01 11.33 2.02 11.66 1 12 C1 14.64 1 17.28 1 20 C-0.65 20.33 -2.3 20.66 -4 21 C-3.91262287 18.43593328 -3.80570881 15.87517784 -3.6875 13.3125 C-3.66494141 12.59126953 -3.64238281 11.87003906 -3.61914062 11.12695312 C-3.39321663 6.62901178 -2.75062688 3.73878775 0 0 Z " fill="#84B036" transform="translate(318,58)"/>
<path d="M0 0 C1.62463842 -0.05395478 3.24978541 -0.09277195 4.875 -0.125 C5.77992188 -0.14820312 6.68484375 -0.17140625 7.6171875 -0.1953125 C10 0 10 0 12 2 C12.80853395 6.25257759 12.93457898 10.35490513 10.76171875 14.1796875 C8.28574177 17.14102969 6.71554701 18.76148433 3 20 C3 15.48032777 5.45550214 12.43774631 7.6875 8.59375 C9.22575425 6.03835359 9.22575425 6.03835359 9 3 C6.03 2.67 3.06 2.34 0 2 C0 1.34 0 0.68 0 0 Z " fill="#4A5D99" transform="translate(332,109)"/>
<path d="M0 0 C0.99 0 1.98 0 3 0 C3.25287193 6.06892629 2.69832609 11.16200408 1 17 C1.66 17.33 2.32 17.66 3 18 C2.05125 17.814375 1.1025 17.62875 0.125 17.4375 C-2.89868793 16.71313368 -2.89868793 16.71313368 -5 18 C-5.78287497 11.89357521 -3.10825151 7.99540421 0 3 C-0.66 2.67 -1.32 2.34 -2 2 C-1.34 1.34 -0.68 0.68 0 0 Z " fill="#A9CD34" transform="translate(358,35)"/>
<path d="M0 0 C0 3 0 3 -1.9765625 5.04296875 C-2.85054688 5.75066406 -3.72453125 6.45835938 -4.625 7.1875 C-5.91277344 8.26064453 -5.91277344 8.26064453 -7.2265625 9.35546875 C-10.43367749 11.25715243 -12.33505468 11.32780303 -16 11 C-16 9.68 -16 8.36 -16 7 C-15.236875 6.731875 -14.47375 6.46375 -13.6875 6.1875 C-11.00940089 5.19741865 -11.00940089 5.19741865 -9.4375 3.4375 C-7.70553268 1.70553268 -6.37871446 1.41012318 -4 1 C-3.67 1.66 -3.34 2.32 -3 3 C-2.01 2.01 -1.02 1.02 0 0 Z " fill="#5D9A50" transform="translate(347,80)"/>
<path d="M0 0 C0.33 0 0.66 0 1 0 C1 4.29 1 8.58 1 13 C6.84165594 10.7896437 11.97236736 8.70457142 17 5 C17.66 5.33 18.32 5.66 19 6 C17.3790787 7.17232685 15.75313167 8.3377077 14.125 9.5 C13.22007812 10.1496875 12.31515625 10.799375 11.3828125 11.46875 C9 13 9 13 7 13 C7 13.66 7 14.32 7 15 C-2.41002278 17.48063781 -2.41002278 17.48063781 -7 16 C-7 15.67 -7 15.34 -7 15 C-5.02 15 -3.04 15 -1 15 C-0.67 10.05 -0.34 5.1 0 0 Z " fill="#44631C" transform="translate(313,66)"/>
<path d="M0 0 C1.32 0.33 2.64 0.66 4 1 C4.0880829 6.10880829 4.0880829 6.10880829 3 9 C0.25284609 11.47762183 -2.7436976 13.26330539 -6 15 C-7.60031344 11.79937313 -6.03173691 9.27728194 -5 6 C-4.01 7.485 -4.01 7.485 -3 9 C-2.34 9 -1.68 9 -1 9 C-1.20625 8.2575 -1.4125 7.515 -1.625 6.75 C-2.04408751 3.67669159 -1.61949011 2.57213134 0 0 Z " fill="#5A9438" transform="translate(333,59)"/>
<path d="M0 0 C2 2 2 2 2 4.3125 C0.58484435 8.11573082 -1.75397195 9.6628598 -5 12 C-5.99 12.33 -6.98 12.66 -8 13 C-7.63033201 11.20275237 -7.2282752 9.41214422 -6.8125 7.625 C-6.59207031 6.62726562 -6.37164062 5.62953125 -6.14453125 4.6015625 C-5 2 -5 2 -2.38671875 0.6484375 C-1.59910156 0.43445312 -0.81148438 0.22046875 0 0 Z " fill="#596349" transform="translate(320,38)"/>
<path d="M0 0 C0.66 0.66 1.32 1.32 2 2 C1.01 2 0.02 2 -1 2 C-1.33 3.32 -1.66 4.64 -2 6 C-3.62580966 5.88601335 -5.25067157 5.75844341 -6.875 5.625 C-7.77992188 5.55539063 -8.68484375 5.48578125 -9.6171875 5.4140625 C-12 5 -12 5 -14 3 C-8.88990896 -0.44148988 -6.24135045 -1.71331189 0 0 Z " fill="#94BF39" transform="translate(334,76)"/>
<path d="M0 0 C0 3.86894238 -1.33221537 5.78096377 -3.25 9.125 C-3.85328125 10.20007813 -4.4565625 11.27515625 -5.078125 12.3828125 C-7 15 -7 15 -9.234375 15.8671875 C-9.81703125 15.91101562 -10.3996875 15.95484375 -11 16 C-10.67 14.35 -10.34 12.7 -10 11 C-9.34 11 -8.68 11 -8 11 C-7.9071875 9.576875 -7.9071875 9.576875 -7.8125 8.125 C-7.544375 7.09375 -7.27625 6.0625 -7 5 C-4.4375 3.625 -4.4375 3.625 -2 3 C-2 2.34 -2 1.68 -2 1 C-1.34 0.67 -0.68 0.34 0 0 Z " fill="#368739" transform="translate(358,37)"/>
<path d="M0 0 C1.65 0 3.3 0 5 0 C5.268125 1.134375 5.53625 2.26875 5.8125 3.4375 C6.4003125 5.2009375 6.4003125 5.2009375 7 7 C7.99 7.33 8.98 7.66 10 8 C10.33 8.99 10.66 9.98 11 11 C13.00016466 12.20882096 13.00016466 12.20882096 15 13 C15 14.32 15 15.64 15 17 C10.71 17 6.42 17 2 17 C2 16.67 2 16.34 2 16 C6.455 15.505 6.455 15.505 11 15 C9.43663287 12.03783069 8.16989497 10.1316686 5.5 8.0625 C2.60442964 5.67365446 1.47440119 3.41440276 0 0 Z " fill="#CED89F" transform="translate(300,75)"/>
<path d="M0 0 C-0.48324819 5.15464734 -3.18610761 8.81550319 -6 13 C-6.33 12.34 -6.66 11.68 -7 11 C-9.31 11.33 -11.62 11.66 -14 12 C-11 9 -8 6 -5 3 C-4.443125 2.401875 -3.88625 1.80375 -3.3125 1.1875 C-2 0 -2 0 0 0 Z " fill="#58943C" transform="translate(353,68)"/>
<path d="M0 0 C0.66 0.33 1.32 0.66 2 1 C5.04838667 1.27632858 8.09654869 1.44658298 11.15234375 1.62109375 C14 2 14 2 17 4 C12.05 3.67 7.1 3.34 2 3 C1.67 4.65 1.34 6.3 1 8 C-0.19140625 10.23828125 -0.19140625 10.23828125 -1.5625 12.3125 C-2.01753906 13.00988281 -2.47257812 13.70726563 -2.94140625 14.42578125 C-3.29074219 14.94527344 -3.64007813 15.46476562 -4 16 C-4 12.76344816 -3.3449153 11.21247361 -2 8.3125 C-1.62875 7.50425781 -1.2575 6.69601563 -0.875 5.86328125 C-0.58625 5.24839844 -0.2975 4.63351563 0 4 C-1.175625 5.2375 -1.175625 5.2375 -2.375 6.5 C-5 9 -5 9 -7 9 C-7 6 -7 6 -5.46875 4.39453125 C-4.49421875 3.61142578 -4.49421875 3.61142578 -3.5 2.8125 C-2.8503125 2.28269531 -2.200625 1.75289063 -1.53125 1.20703125 C-1.0259375 0.80871094 -0.520625 0.41039063 0 0 Z " fill="#B5BB8F" transform="translate(353,64)"/>
<path d="M0 0 C0.33 1.32 0.66 2.64 1 4 C0.236875 4.433125 -0.52625 4.86625 -1.3125 5.3125 C-3.96286253 6.83752358 -3.96286253 6.83752358 -5.6875 8.6875 C-6.120625 9.120625 -6.55375 9.55375 -7 10 C-7.66 10 -8.32 10 -9 10 C-9.226875 10.639375 -9.45375 11.27875 -9.6875 11.9375 C-11 14 -11 14 -13.625 14.75 C-14.40875 14.8325 -15.1925 14.915 -16 15 C-15.875 13.25 -15.875 13.25 -15 11 C-13.66203426 10.02997484 -12.31095389 9.07268907 -10.8984375 8.21484375 C-7.06536773 5.76199458 -3.56608964 2.82117313 0 0 Z " fill="#78A737" transform="translate(355,60)"/>
<path d="M0 0 C0.66 0.33 1.32 0.66 2 1 C-4.27 7.27 -10.54 13.54 -17 20 C-17 14.49046452 -11.69518349 10.76920103 -8 7 C-5.39894309 4.58259735 -2.74176609 2.25616719 0 0 Z " fill="#6978AA" transform="translate(295,127)"/>
<path d="M0 0 C0 0.66 0 1.32 0 2 C0.99 2.33 1.98 2.66 3 3 C1.02 3 -0.96 3 -3 3 C-3 3.66 -3 4.32 -3 5 C-7.455 5.495 -7.455 5.495 -12 6 C-9.00137697 0.00275393 -6.4945263 -0.29520574 0 0 Z " fill="#7BB14E" transform="translate(303,93)"/>
<path d="M0 0 C1.8125 3 1.8125 3 1.625 6.8125 C1.356875 7.864375 1.08875 8.91625 0.8125 10 C0.4825 10 0.1525 10 -0.1875 10 C-0.41536458 7.94921875 -0.64322917 5.8984375 -0.87109375 3.84765625 C-1.00636614 1.98859771 -1.00636614 1.98859771 -2.1875 1 C-3.86933948 0.76712992 -5.5587416 0.58735834 -7.25 0.4375 C-8.62865234 0.31181641 -8.62865234 0.31181641 -10.03515625 0.18359375 C-11.10056641 0.09271484 -11.10056641 0.09271484 -12.1875 0 C-12.1875 0.66 -12.1875 1.32 -12.1875 2 C-11.1975 2.33 -10.2075 2.66 -9.1875 3 C-11.4975 3.66 -13.8075 4.32 -16.1875 5 C-16.1875 3.68 -16.1875 2.36 -16.1875 1 C-11.03975704 -2.43182864 -5.33613619 -3.34816389 0 0 Z " fill="#9AA5C3" transform="translate(344.1875,109)"/>
<path d="M0 0 C-0.33 1.65 -0.66 3.3 -1 5 C-0.34 5 0.32 5 1 5 C1 4.34 1 3.68 1 3 C2.98 2.67 4.96 2.34 7 2 C4.63202009 4.61724095 2.10399646 6.32861729 -1 8 C-1.66 8 -2.32 8 -3 8 C-3 6.68 -3 5.36 -3 4 C-5.31 4.66 -7.62 5.32 -10 6 C-7.35570758 3.077361 -4.105808 0 0 0 Z " fill="#81A18B" transform="translate(350,10)"/>
<path d="M0 0 C-0.33 0.66 -0.66 1.32 -1 2 C-3.06640625 2.4140625 -3.06640625 2.4140625 -5.5625 2.625 C-6.38878906 2.69976562 -7.21507812 2.77453125 -8.06640625 2.8515625 C-9.02353516 2.92503906 -9.02353516 2.92503906 -10 3 C-10 3.66 -10 4.32 -10 5 C-13.96 4.67 -17.92 4.34 -22 4 C-18.13112877 2.06556439 -14.62545051 1.13232059 -10.4375 0.3125 C-9.76525391 0.17005859 -9.09300781 0.02761719 -8.40039062 -0.11914062 C-5.11277307 -0.77535823 -3.23577251 -1.07859084 0 0 Z " fill="#ADC698" transform="translate(350,42)"/>
<path d="M0 0 C0.53625 0.37125 1.0725 0.7425 1.625 1.125 C-1.84565807 3.43877205 -5.04540155 4.01484473 -9.0625 4.75 C-9.76439453 4.8840625 -10.46628906 5.018125 -11.18945312 5.15625 C-12.91681706 5.4852717 -14.64576591 5.80595312 -16.375 6.125 C-16.375 5.465 -16.375 4.805 -16.375 4.125 C-13.35393293 2.11095529 -11.84506291 1.7705931 -8.375 1.125 C-7.364375 0.733125 -6.35375 0.34125 -5.3125 -0.0625 C-2.375 -0.875 -2.375 -0.875 0 0 Z " fill="#8C98BD" transform="translate(308.375,140.875)"/>
<path d="M0 0 C0.99 0 1.98 0 3 0 C1.82713348 9.33041575 1.82713348 9.33041575 -1.625 12.125 C-2.40875 12.41375 -3.1925 12.7025 -4 13 C-4.33 12.34 -4.66 11.68 -5 11 C-4.34 11 -3.68 11 -3 11 C-2.87625 10.29875 -2.7525 9.5975 -2.625 8.875 C-1.96161655 5.82343613 -1.02788045 2.94659062 0 0 Z " fill="#70A436" transform="translate(325,64)"/>
<path d="M0 0 C0.33 1.32 0.66 2.64 1 4 C0.401875 4.391875 -0.19625 4.78375 -0.8125 5.1875 C-3.2497346 7.20692295 -4.39605897 9.30246282 -6 12 C-6.66 12 -7.32 12 -8 12 C-8.33 12.99 -8.66 13.98 -9 15 C-10.32 14.67 -11.64 14.34 -13 14 C-13 13.34 -13 12.68 -13 12 C-11.42578125 10.703125 -11.42578125 10.703125 -9.3125 9.25 C-5.52130737 6.51603161 -2.82529901 3.70820495 0 0 Z " fill="#92BB3E" transform="translate(344,60)"/>
<path d="M0 0 C1.24546405 2.49092811 0.7767578 3.41080733 0 6 C2.88437779 4.70700306 4.87219421 3.34058637 7 1 C6.67 3.31 6.34 5.62 6 8 C5.01 8 4.02 8 3 8 C3 8.99 3 9.98 3 11 C2.34 10.67 1.68 10.34 1 10 C1.33 9.34 1.66 8.68 2 8 C0.68 8 -0.64 8 -2 8 C-1.125 1.125 -1.125 1.125 0 0 Z " fill="#A7BA6E" transform="translate(313,44)"/>
<path d="M0 0 C-0.47202486 4.24822374 -2.96655518 6.19989709 -6 9 C-7.32 8.34 -8.64 7.68 -10 7 C-8.90536178 5.82438854 -7.79892814 4.6597511 -6.6875 3.5 C-6.07261719 2.8503125 -5.45773437 2.200625 -4.82421875 1.53125 C-3 0 -3 0 0 0 Z " fill="#828FB9" transform="translate(349,143)"/>
<path d="M0 0 C-0.804375 0.45375 -1.60875 0.9075 -2.4375 1.375 C-5.08856572 2.74725665 -5.08856572 2.74725665 -6 5 C-5.34 5.33 -4.68 5.66 -4 6 C-5.98 6.66 -7.96 7.32 -10 8 C-9.67 6.68 -9.34 5.36 -9 4 C-10.32 3.67 -11.64 3.34 -13 3 C-11.5903653 2.29819469 -10.17192359 1.61406042 -8.75 0.9375 C-7.96109375 0.55464844 -7.1721875 0.17179687 -6.359375 -0.22265625 C-3.74006478 -1.08564091 -2.55144824 -0.93045933 0 0 Z " fill="#A4C988" transform="translate(297,94)"/>
<path d="M0 0 C-0.99 1.485 -0.99 1.485 -2 3 C-2.66 3 -3.32 3 -4 3 C-4.33 3.99 -4.66 4.98 -5 6 C-6.375 7.6875 -6.375 7.6875 -8 9 C-8.99 9 -9.98 9 -11 9 C-10.67 7.68 -10.34 6.36 -10 5 C-8.68 4.67 -7.36 4.34 -6 4 C-6.33 3.01 -6.66 2.02 -7 1 C-4.53721199 -0.231394 -2.7204945 -0.07159196 0 0 Z " fill="#659B3A" transform="translate(335,84)"/>
<path d="M0 0 C0.66 0.33 1.32 0.66 2 1 C1.79503906 1.56847656 1.59007812 2.13695312 1.37890625 2.72265625 C-0.29092669 7.5084454 -1.46376936 11.95943201 -2 17 C-2.33 17 -2.66 17 -3 17 C-3.08160748 15.10489301 -3.13946459 13.20875496 -3.1875 11.3125 C-3.22230469 10.25675781 -3.25710938 9.20101562 -3.29296875 8.11328125 C-2.96666615 4.64577232 -1.99030125 2.81567552 0 0 Z " fill="#8FB836" transform="translate(318,58)"/>
<path d="M0 0 C0.99 0 1.98 0 3 0 C3.25287193 6.06892629 2.69832609 11.16200408 1 17 C1.66 17.33 2.32 17.66 3 18 C2.01 18 1.02 18 0 18 C0 13.05 0 8.1 0 3 C-0.66 2.67 -1.32 2.34 -2 2 C-1.34 1.34 -0.68 0.68 0 0 Z " fill="#E4EBCE" transform="translate(358,35)"/>
<path d="M0 0 C-1.75 2 -1.75 2 -4 4 C-5.32 4 -6.64 4 -8 4 C-8 4.66 -8 5.32 -8 6 C-8.66 6 -9.32 6 -10 6 C-9.75 3.625 -9.75 3.625 -9 1 C-5.89666169 -1.43833725 -3.67370652 -1.02047403 0 0 Z " fill="#1D6135" transform="translate(359,9)"/>
<path d="M0 0 C0.33 0.66 0.66 1.32 1 2 C1.66 2 2.32 2 3 2 C1.79618552 4.49361571 0.54571278 6.68143083 -1 9 C-1.66 9 -2.32 9 -3 9 C-3.33 9.66 -3.66 10.32 -4 11 C-4.66 10.67 -5.32 10.34 -6 10 C-4.69063102 7.07909997 -3.24380538 5.24380538 -1 3 C-0.67 2.01 -0.34 1.02 0 0 Z " fill="#C3D86E" transform="translate(310,50)"/>
<path d="M0 0 C0 0.66 0 1.32 0 2 C-0.928125 2.309375 -0.928125 2.309375 -1.875 2.625 C-4.8300129 4.53706717 -4.95568305 6.72780688 -6 10 C-6.99 10.33 -7.98 10.66 -9 11 C-9 10.34 -9 9.68 -9 9 C-9.66 8.67 -10.32 8.34 -11 8 C-10.360625 7.7525 -9.72125 7.505 -9.0625 7.25 C-6.80364886 6.21186805 -6.80364886 6.21186805 -6.5 4 C-6 2 -6 2 -4.0625 0.75 C-2 0 -2 0 0 0 Z " fill="#67A064" transform="translate(356,38)"/>
<path d="M0 0 C0 3 0 3 -2.5 5.6875 C-3.325 6.450625 -4.15 7.21375 -5 8 C-5.66 7.01 -6.32 6.02 -7 5 C-7.99 5 -8.98 5 -10 5 C-9.67 4.01 -9.34 3.02 -9 2 C-6.94921875 1.77213542 -4.8984375 1.54427083 -2.84765625 1.31640625 C-0.98859771 1.18113386 -0.98859771 1.18113386 0 0 Z " fill="#818978" transform="translate(327,34)"/>
<path d="M0 0 C0.66 0.33 1.32 0.66 2 1 C0.21427748 2.83947337 -1.57802449 4.67157741 -3.375 6.5 C-3.88289062 7.02464844 -4.39078125 7.54929687 -4.9140625 8.08984375 C-6.23832604 9.43153181 -7.61605865 10.71995815 -9 12 C-9.66 12 -10.32 12 -11 12 C-9.49650623 8.33213607 -7.36271208 6.31089607 -4.375 3.75 C-3.14910156 2.69039062 -3.14910156 2.69039062 -1.8984375 1.609375 C-1.27195313 1.07828125 -0.64546875 0.5471875 0 0 Z " fill="#FD6674" transform="translate(233,60)"/>
<path d="M0 0 C-0.33 1.98 -0.66 3.96 -1 6 C-2.32 6 -3.64 6 -5 6 C-5 7.32 -5 8.64 -5 10 C-5.66 10 -6.32 10 -7 10 C-7.33 9.01 -7.66 8.02 -8 7 C-6.85546875 5.17578125 -6.85546875 5.17578125 -5.1875 3.3125 C-4.37345703 2.37857422 -4.37345703 2.37857422 -3.54296875 1.42578125 C-2 0 -2 0 0 0 Z " fill="#2A542B" transform="translate(336,20)"/>
<path d="M0 0 C0.86625 0.639375 1.7325 1.27875 2.625 1.9375 C5.9598812 3.97548296 8.16047478 4.63433093 12 5 C12 5.33 12 5.66 12 6 C7.37114979 6.90761769 4.14974809 7.48984886 0 5 C-1.3125 2.875 -1.3125 2.875 -2 1 C-1.34 0.67 -0.68 0.34 0 0 Z " fill="#5F70A3" transform="translate(276,175)"/>
<path d="M0 0 C0.66 0.33 1.32 0.66 2 1 C0.3790787 2.17232685 -1.24686833 3.3377077 -2.875 4.5 C-3.77992188 5.1496875 -4.68484375 5.799375 -5.6171875 6.46875 C-8 8 -8 8 -10 8 C-10 8.66 -10 9.32 -10 10 C-10.99 9.67 -11.98 9.34 -13 9 C-13 8.34 -13 7.68 -13 7 C-12.14535156 6.57847656 -11.29070312 6.15695313 -10.41015625 5.72265625 C-9.30542969 5.17480469 -8.20070313 4.62695312 -7.0625 4.0625 C-5.96035156 3.51722656 -4.85820312 2.97195312 -3.72265625 2.41015625 C-1.15205586 1.25295022 -1.15205586 1.25295022 0 0 Z " fill="#336826" transform="translate(330,71)"/>
<path d="M0 0 C0.66 0.33 1.32 0.66 2 1 C-1.96 4.96 -5.92 8.92 -10 13 C-10.66 12.67 -11.32 12.34 -12 12 C-8.32167983 7.47384007 -4.58913637 3.60575001 0 0 Z " fill="#549FD4" transform="translate(36,88)"/>
<path d="M0 0 C0.66 0.33 1.32 0.66 2 1 C1.67 1.66 1.34 2.32 1 3 C0.34 3 -0.32 3 -1 3 C-1.33 4.32 -1.66 5.64 -2 7 C-3.32 6.67 -4.64 6.34 -6 6 C-6.33 6.99 -6.66 7.98 -7 9 C-7 7.35 -7 5.7 -7 4 C-1.7265625 0.77734375 -1.7265625 0.77734375 0 0 Z " fill="#8DB733" transform="translate(323,83)"/>
<path d="M0 0 C1.98 0 3.96 0 6 0 C4.25 4.875 4.25 4.875 2 6 C1.01 5.34 0.02 4.68 -1 4 C-0.67 2.68 -0.34 1.36 0 0 Z " fill="#ACCB38" transform="translate(311,82)"/>
<path d="M0 0 C-0.33 1.32 -0.66 2.64 -1 4 C-1.99 4 -2.98 4 -4 4 C-3.67 3.34 -3.34 2.68 -3 2 C-4.98 2 -6.96 2 -9 2 C-6.98558063 -2.02883874 -3.72407517 -0.90585612 0 0 Z " fill="#9BB5A5" transform="translate(367,3)"/>
<path d="M0 0 C0.99 0.66 1.98 1.32 3 2 C2.01 2 1.02 2 0 2 C-0.33 3.32 -0.66 4.64 -1 6 C-2.98 6 -4.96 6 -7 6 C-6 3 -6 3 -2.9375 1.3125 C-1.968125 0.879375 -0.99875 0.44625 0 0 Z " fill="#86B139" transform="translate(333,76)"/>
<path d="M0 0 C0.66 1.32 1.32 2.64 2 4 C-0.66666667 4.66666667 -3.33333333 5.33333333 -6 6 C-5.25 3.5625 -5.25 3.5625 -4 1 C-1.875 0.1875 -1.875 0.1875 0 0 Z " fill="#5D654C" transform="translate(320,38)"/>
<path d="M0 0 C-0.33 0.99 -0.66 1.98 -1 3 C-5.455 3.495 -5.455 3.495 -10 4 C-7.16124653 -0.25813021 -4.8137938 -0.13010254 0 0 Z " fill="#5D6DA4" transform="translate(317,138)"/>
<path d="M0 0 C1.32 0 2.64 0 4 0 C3.67 1.65 3.34 3.3 3 5 C1.35 5.33 -0.3 5.66 -2 6 C-1.49396008 3.83125748 -1.00016187 2.00032373 0 0 Z " fill="#7AB054" transform="translate(284,98)"/>
<path d="M0 0 C0.33 0.66 0.66 1.32 1 2 C3.02463255 2.65213292 3.02463255 2.65213292 5 3 C-0.625 6 -0.625 6 -4 6 C-2.25 1.125 -2.25 1.125 0 0 Z " fill="#95BA85" transform="translate(330,89)"/>
<path d="M0 0 C0.66 0.33 1.32 0.66 2 1 C-0.97 3.97 -3.94 6.94 -7 10 C-7.66 9.67 -8.32 9.34 -9 9 C-6.21000549 5.51250686 -3.74764169 2.49842779 0 0 Z " fill="#5BA3D6" transform="translate(629,83)"/>
<path d="M0 0 C-2.55068845 2.35448165 -3.71017358 2.98327924 -7.25 3.1875 C-8.1575 3.125625 -9.065 3.06375 -10 3 C-10 2.34 -10 1.68 -10 1 C-3.71428571 -1.42857143 -3.71428571 -1.42857143 0 0 Z " fill="#6373A6" transform="translate(304,177)"/>
<path d="M0 0 C2 1 2 1 3 3 C1.03533587 4.06775224 -0.96855359 5.06553465 -3 6 C-5 5 -5 5 -6 3 C-4.03533587 1.93224776 -2.03144641 0.93446535 0 0 Z " fill="#8995BC" transform="translate(308,172)"/>
<path d="M0 0 C0.66 0.33 1.32 0.66 2 1 C0.92807816 2.3218362 -0.15802695 3.63217927 -1.25 4.9375 C-1.85328125 5.66839844 -2.4565625 6.39929688 -3.078125 7.15234375 C-5.10741134 9.10326334 -6.254407 9.61731779 -9 10 C-7.61811547 6.78956118 -6.07578097 4.95063635 -3.375 2.75 C-2.74335938 2.22921875 -2.11171875 1.7084375 -1.4609375 1.171875 C-0.73777344 0.59179688 -0.73777344 0.59179688 0 0 Z " fill="#8C9F89" transform="translate(332,20)"/>
<path d="M0 0 C0 1.32 0 2.64 0 4 C-2.31 4.33 -4.62 4.66 -7 5 C-6.1875 3.0625 -6.1875 3.0625 -5 1 C-2 0 -2 0 0 0 Z " fill="#205E31" transform="translate(347,14)"/>
<path d="M0 0 C0.66 0.33 1.32 0.66 2 1 C2 1.99 2 2.98 2 4 C0 5.6875 0 5.6875 -2 7 C-2.66 6.67 -3.32 6.34 -4 6 C-4 5.01 -4 4.02 -4 3 C-2 1.3125 -2 1.3125 0 0 Z " fill="#7C8AB5" transform="translate(325,161)"/>
<path d="M0 0 C-0.56371414 3.26954202 -1.49962266 4.82575883 -4 7 C-4.66 6.67 -5.32 6.34 -6 6 C-5.67 5.34 -5.34 4.68 -5 4 C-5.66 3.67 -6.32 3.34 -7 3 C-3.375 0 -3.375 0 0 0 Z " fill="#537C5C" transform="translate(341,16)"/>
<path d="M0 0 C0.66 0 1.32 0 2 0 C1.95875 0.94875 1.9175 1.8975 1.875 2.875 C1.65026182 6.10244856 1.65026182 6.10244856 4 8 C2.68 8 1.36 8 0 8 C-1.125 2.25 -1.125 2.25 0 0 Z " fill="#A1C13A" transform="translate(306,73)"/>
<path d="M0 0 C0.66 0 1.32 0 2 0 C1.25 4.75 1.25 4.75 -1 7 C-1 6.34 -1 5.68 -1 5 C-1.66 5 -2.32 5 -3 5 C-1.125 1.125 -1.125 1.125 0 0 Z " fill="#629841" transform="translate(351,68)"/>
<path d="M0 0 C0.99 0.33 1.98 0.66 3 1 C3 2.32 3 3.64 3 5 C1.35 5.66 -0.3 6.32 -2 7 C-1.34 4.69 -0.68 2.38 0 0 Z " fill="#383D21" transform="translate(314,44)"/>
<path d="M0 0 C0.33 0.99 0.66 1.98 1 3 C-0.98 3.66 -2.96 4.32 -5 5 C-5.33 4.01 -5.66 3.02 -6 2 C-2.25 0 -2.25 0 0 0 Z " fill="#7784B2" transform="translate(321,135)"/>
<path d="M0 0 C0 0.99 0 1.98 0 3 C-1.53125 4.38671875 -1.53125 4.38671875 -3.5 5.6875 C-4.47453125 6.34298828 -4.47453125 6.34298828 -5.46875 7.01171875 C-5.9740625 7.33785156 -6.479375 7.66398437 -7 8 C-7 6.68 -7 5.36 -7 4 C-5.824375 3.566875 -5.824375 3.566875 -4.625 3.125 C-1.90328368 2.15087746 -1.90328368 2.15087746 0 0 Z " fill="#A7C8A9" transform="translate(347,80)"/>
<path d="M0 0 C-0.75 1.9375 -0.75 1.9375 -2 4 C-4.125 4.75 -4.125 4.75 -6 5 C-5.6875 3.0625 -5.6875 3.0625 -5 1 C-2 0 -2 0 0 0 Z " fill="#76A733" transform="translate(338,77)"/>
<path d="M0 0 C-0.33 0.66 -0.66 1.32 -1 2 C-4.3 2 -7.6 2 -11 2 C-11 1.67 -11 1.34 -11 1 C-3.375 -1.125 -3.375 -1.125 0 0 Z " fill="#B0CBAA" transform="translate(350,42)"/>
<path d="M0 0 C-3.625 3 -3.625 3 -7 3 C-7 2.01 -7 1.02 -7 0 C-4.3333581 -1.33332095 -2.83319697 -0.67102033 0 0 Z " fill="#6978AA" transform="translate(328,134)"/>
<path d="M0 0 C1.32 0 2.64 0 4 0 C3.67 1.32 3.34 2.64 3 4 C2.01 4 1.02 4 0 4 C0 2.68 0 1.36 0 0 Z " fill="#479038" transform="translate(342,79)"/>
</svg>
